fd_9_states
version=1
nRows=47
nColumns=17
inDegrees=yes

# SIMM Motion File Header:
name fd_9_states
datacolumns 17
datarows 47
otherdata 1
range 0.030000 0.053497
endheader
time	/jointset/r_shoulder/r_shoulder_elev/value	/jointset/r_shoulder/r_shoulder_elev/speed	/jointset/r_elbow/r_elbow_flex/value	/jointset/r_elbow/r_elbow_flex/speed	/forceset/TRIlong/activation	/forceset/TRIlong/fiber_length	/forceset/TRIlat/activation	/forceset/TRIlat/fiber_length	/forceset/TRImed/activation	/forceset/TRImed/fiber_length	/forceset/BIClong/activation	/forceset/BIClong/fiber_length	/forceset/BICshort/activation	/forceset/BICshort/fiber_length	/forceset/BRA/activation	/forceset/BRA/fiber_length
      0.030000	      0.000000	      0.000000	     21.823504	    388.392104	      0.041079	      0.144421	      0.020000	      0.078771	      0.020000	      0.073799	      0.020000	      0.143187	      0.117280	      0.141610	      0.234941	      0.087720
      0.030275	      0.000001	      0.005993	     21.930121	    388.276214	      0.040999	      0.144465	      0.020000	      0.078811	      0.020000	      0.073847	      0.020099	      0.143150	      0.117130	      0.141572	      0.233890	      0.087695
      0.030549	      0.000003	      0.013323	     22.036706	    388.156140	      0.040919	      0.144509	      0.020000	      0.078854	      0.020000	      0.073891	      0.020211	      0.143113	      0.117039	      0.141534	      0.232791	      0.087670
      0.031766	      0.000049	      0.065197	     22.508888	    387.565894	      0.040564	      0.144707	      0.020000	      0.079039	      0.020000	      0.074089	      0.020645	      0.142946	      0.116639	      0.141365	      0.228015	      0.087562
      0.032237	      0.000086	      0.096993	     22.691146	    387.302580	      0.040429	      0.144784	      0.020000	      0.079137	      0.020000	      0.074156	      0.020788	      0.142881	      0.116487	      0.141299	      0.226213	      0.087521
      0.032707	      0.000140	      0.132165	     22.873278	    387.029240	      0.040295	      0.144861	      0.020000	      0.079197	      0.020000	      0.074234	      0.020919	      0.142816	      0.116336	      0.141233	      0.224434	      0.087480
      0.033228	      0.000221	      0.180813	     23.074553	    386.697969	      0.040148	      0.144945	      0.020000	      0.079279	      0.020000	      0.074312	      0.021051	      0.142743	      0.116171	      0.141160	      0.222493	      0.087435
      0.033748	      0.000330	      0.239303	     23.275649	    386.337347	      0.040001	      0.145030	      0.020000	      0.079361	      0.020000	      0.074402	      0.021170	      0.142671	      0.116007	      0.141086	      0.220580	      0.087390
      0.034268	      0.000471	      0.304245	     23.476551	    385.957246	      0.039856	      0.145114	      0.020000	      0.079444	      0.020000	      0.074476	      0.021278	      0.142598	      0.115844	      0.141013	      0.218694	      0.087346
      0.034788	      0.000648	      0.380469	     23.677248	    385.543427	      0.039712	      0.145199	      0.020000	      0.079526	      0.020000	      0.074568	      0.021376	      0.142525	      0.115683	      0.140938	      0.216835	      0.087302
      0.035309	      0.000868	      0.462757	     23.877724	    385.111136	      0.039569	      0.145283	      0.020000	      0.079608	      0.020000	      0.074640	      0.021465	      0.142451	      0.115524	      0.140864	      0.215001	      0.087257
      0.035829	      0.001132	      0.556670	     24.077967	    384.643972	      0.039427	      0.145367	      0.020000	      0.079690	      0.020000	      0.074731	      0.021545	      0.142377	      0.115366	      0.140789	      0.213193	      0.087213
      0.036349	      0.001448	      0.656719	     24.277961	    384.157992	      0.039287	      0.145451	      0.020000	      0.079773	      0.020000	      0.074803	      0.021618	      0.142303	      0.115209	      0.140714	      0.211411	      0.087170
      0.036869	      0.001818	      0.768164	     24.477694	    383.637669	      0.039147	      0.145535	      0.020000	      0.079854	      0.020000	      0.074894	      0.021685	      0.142229	      0.115054	      0.140638	      0.209652	      0.087126
      0.037390	      0.002248	      0.885662	     24.677150	    383.098634	      0.039008	      0.145619	      0.020000	      0.079936	      0.020000	      0.074966	      0.021745	      0.142155	      0.114900	      0.140563	      0.207918	      0.087082
      0.037910	      0.002741	      1.014235	     24.876318	    382.526060	      0.038871	      0.145703	      0.020000	      0.080018	      0.020000	      0.075057	      0.021799	      0.142080	      0.114748	      0.140487	      0.206208	      0.087039
      0.038430	      0.003304	      1.148717	     25.075183	    381.935065	      0.038734	      0.145787	      0.020000	      0.080099	      0.020000	      0.075129	      0.021849	      0.142005	      0.114597	      0.140410	      0.204520	      0.086995
      0.038951	      0.003939	      1.293916	     25.273732	    381.311437	      0.038599	      0.145871	      0.020000	      0.080181	      0.020000	      0.075219	      0.021893	      0.141930	      0.114447	      0.140334	      0.202856	      0.086952
      0.039471	      0.004651	      1.444850	     25.471952	    380.669764	      0.038464	      0.145954	      0.020000	      0.080262	      0.020000	      0.075291	      0.021934	      0.141855	      0.114299	      0.140257	      0.201214	      0.086909
      0.039991	      0.005444	      1.605995	     25.669830	    379.996805	      0.038331	      0.146037	      0.020000	      0.080343	      0.020000	      0.075380	      0.021971	      0.141779	      0.114152	      0.140180	      0.199594	      0.086866
      0.040181	      0.005754	      1.665721	     25.741836	    379.748321	      0.038283	      0.146068	      0.020000	      0.080373	      0.020000	      0.075405	      0.022950	      0.141751	      0.113997	      0.140151	      0.199183	      0.086850
      0.040370	      0.006076	      1.726865	     25.813794	    379.495526	      0.038234	      0.146098	      0.020000	      0.080402	      0.020000	      0.075433	      0.024081	      0.141722	      0.113823	      0.140123	      0.198808	      0.086835
      0.041215	      0.007654	      2.008863	     26.134071	    378.339655	      0.038021	      0.146233	      0.020000	      0.080533	      0.020000	      0.075558	      0.028629	      0.141588	      0.113054	      0.139997	      0.197158	      0.086764
      0.041633	      0.008523	      2.155431	     26.291936	    377.746789	      0.037916	      0.146300	      0.020000	      0.080598	      0.020000	      0.075634	      0.030609	      0.141521	      0.112678	      0.139935	      0.196355	      0.086730
      0.042051	      0.009454	      2.303301	     26.449554	    377.149798	      0.037813	      0.146367	      0.020000	      0.080663	      0.020000	      0.075692	      0.032434	      0.141453	      0.112305	      0.139873	      0.195560	      0.086695
      0.042633	      0.010858	      2.516352	     26.669005	    376.296509	      0.037669	      0.146459	      0.020000	      0.080753	      0.020000	      0.075783	      0.034746	      0.141358	      0.111790	      0.139786	      0.194464	      0.086647
      0.043268	      0.012531	      2.754258	     26.907646	    375.348832	      0.037513	      0.146560	      0.020000	      0.080851	      0.020000	      0.075877	      0.036988	      0.141255	      0.111235	      0.139692	      0.193286	      0.086594
      0.043805	      0.014064	      2.961946	     27.108853	    374.527568	      0.037383	      0.146645	      0.020000	      0.080933	      0.020000	      0.075970	      0.038685	      0.141168	      0.110771	      0.139611	      0.192304	      0.086550
      0.044341	      0.015710	      3.171308	     27.309618	    373.700501	      0.037254	      0.146730	      0.020000	      0.081015	      0.020000	      0.076042	      0.040219	      0.141082	      0.110311	      0.139531	      0.191333	      0.086505
      0.044878	      0.017469	      3.387762	     27.509933	    372.851521	      0.037126	      0.146815	      0.020000	      0.081097	      0.020000	      0.076131	      0.041608	      0.140995	      0.109856	      0.139450	      0.190375	      0.086461
      0.045415	      0.019346	      3.606434	     27.709790	    371.994891	      0.036999	      0.146900	      0.020000	      0.081179	      0.020000	      0.076205	      0.042865	      0.140909	      0.109406	      0.139370	      0.189429	      0.086417
      0.045951	      0.021341	      3.831417	     27.909182	    371.118410	      0.036873	      0.146984	      0.020000	      0.081261	      0.020000	      0.076293	      0.044006	      0.140823	      0.108960	      0.139289	      0.188494	      0.086373
      0.046488	      0.023458	      4.058640	     28.108102	    370.233979	      0.036747	      0.147069	      0.020000	      0.081342	      0.020000	      0.076368	      0.045039	      0.140737	      0.108518	      0.139208	      0.187571	      0.086329
      0.047025	      0.025699	      4.291803	     28.306542	    369.330558	      0.036623	      0.147153	      0.020000	      0.081424	      0.020000	      0.076455	      0.045978	      0.140651	      0.108081	      0.139127	      0.186659	      0.086285
      0.047561	      0.028065	      4.527352	     28.504494	    368.418538	      0.036500	      0.147237	      0.020000	      0.081505	      0.020000	      0.076530	      0.046829	      0.140565	      0.107648	      0.139046	      0.185757	      0.086241
      0.048098	      0.030559	      4.768453	     28.701953	    367.488456	      0.036377	      0.147321	      0.020000	      0.081586	      0.020000	      0.076615	      0.047603	      0.140480	      0.107220	      0.138964	      0.184867	      0.086197
      0.048635	      0.033183	      5.011948	     28.898910	    366.549545	      0.036256	      0.147405	      0.020000	      0.081666	      0.020000	      0.076691	      0.048306	      0.140394	      0.106795	      0.138883	      0.183988	      0.086153
      0.049171	      0.035939	      5.260573	     29.095359	    365.593615	      0.036136	      0.147488	      0.020000	      0.081747	      0.020000	      0.076775	      0.048945	      0.140309	      0.106375	      0.138801	      0.183119	      0.086110
      0.049835	      0.039537	      5.571240	     29.337782	    364.399057	      0.035988	      0.147591	      0.020000	      0.081846	      0.020000	      0.076868	      0.049656	      0.140204	      0.105860	      0.138699	      0.182058	      0.086056
      0.050035	      0.040659	      5.666562	     29.410539	    364.033595	      0.035944	      0.147622	      0.020000	      0.081876	      0.020000	      0.076900	      0.049946	      0.140172	      0.105716	      0.138669	      0.181736	      0.086040
      0.050186	      0.041521	      5.738831	     29.465536	    363.756459	      0.035910	      0.147646	      0.020000	      0.081898	      0.020000	      0.076923	      0.050895	      0.140148	      0.105680	      0.138646	      0.181447	      0.086028
      0.050337	      0.042394	      5.811321	     29.520491	    363.478514	      0.035877	      0.147669	      0.020000	      0.081921	      0.020000	      0.076946	      0.051893	      0.140124	      0.105652	      0.138622	      0.181153	      0.086016
      0.051093	      0.046923	      6.177276	     29.794633	    362.076353	      0.035712	      0.147786	      0.020000	      0.082033	      0.020000	      0.077058	      0.056481	      0.139998	      0.105513	      0.138506	      0.179702	      0.085955
      0.051755	      0.051120	      6.501377	     30.033946	    360.835096	      0.035569	      0.147888	      0.020000	      0.082131	      0.020000	      0.077153	      0.060004	      0.139886	      0.105393	      0.138403	      0.178450	      0.085903
      0.052417	      0.055533	      6.830433	     30.272434	    359.577041	      0.035427	      0.147990	      0.020000	      0.082228	      0.020000	      0.077266	      0.063127	      0.139772	      0.105274	      0.138300	      0.177218	      0.085850
      0.052957	      0.059292	      7.097070	     30.466292	    358.554627	      0.035312	      0.148073	      0.020000	      0.082307	      0.020000	      0.077330	      0.065412	      0.139679	      0.105178	      0.138216	      0.176226	      0.085808
      0.053497	      0.063197	      7.368598	     30.659595	    357.516286	      0.035198	      0.148156	      0.020000	      0.082386	      0.020000	      0.077411	      0.067488	      0.139586	      0.105083	      0.138131	      0.175247	      0.085765
